<?xml version="1.0" standalone="no"?>
<!DOCTYPE svg PUBLIC "-//W3C//DTD SVG 20010904//EN"
 "http://www.w3.org/TR/2001/REC-SVG-20010904/DTD/svg10.dtd">
<svg version="1.0" xmlns="http://www.w3.org/2000/svg"
 width="600.000000pt" height="601.000000pt" viewBox="0 0 600.000000 601.000000"
 preserveAspectRatio="xMidYMid meet">

<g transform="translate(0.000000,601.000000) scale(0.100000,-0.100000)"
fill="#696969" stroke="none">
<path d="M1331 4628 l-245 -203 -61 -267 -61 -268 119 -222 c65 -123 122 -226
125 -229 4 -4 74 151 156 345 l150 351 248 194 c136 107 248 196 248 198 0 1
-28 59 -62 127 l-61 124 -136 22 c-75 12 -145 24 -156 26 -15 3 -86 -50 -264
-198z"/>
<path d="M4125 4800 c-60 -10 -124 -21 -142 -25 -29 -5 -36 -16 -92 -132 -34
-70 -58 -129 -53 -132 5 -3 117 -91 249 -194 l239 -189 149 -349 c82 -192 152
-349 155 -349 3 0 33 53 67 118 35 64 89 167 121 227 l59 110 -62 267 c-34
147 -63 269 -66 271 -139 122 -485 397 -497 396 -10 0 -66 -9 -127 -19z"/>
<path d="M2260 3319 c-58 -22 -111 -46 -118 -53 -8 -8 -38 -66 -67 -130 l-52
-117 -84 -59 -85 -58 -87 -187 -87 -187 86 -99 c47 -54 91 -99 98 -99 6 0 54
10 106 21 110 25 84 6 378 287 l192 184 0 192 0 193 -80 76 c-43 43 -83 77
-87 76 -4 0 -55 -18 -113 -40z m3 -331 c7 -21 -4 -38 -23 -38 -23 0 -34 16
-26 35 7 18 43 20 49 3z"/>
<path d="M3365 3283 l-85 -75 0 -197 1 -196 234 -220 234 -220 93 -22 c51 -12
100 -22 109 -23 10 0 56 45 103 99 l87 100 -88 186 -88 187 -82 57 -82 56 -58
128 c-45 100 -64 131 -83 139 -14 5 -66 25 -117 43 l-92 33 -86 -75z m238
-295 c7 -21 -4 -38 -23 -38 -23 0 -34 16 -26 35 7 18 43 20 49 3z"/>
<path d="M2671 1924 c-118 -13 -215 -25 -217 -27 -1 -1 1 -30 5 -64 l6 -63
185 -132 185 -133 32 -100 c18 -55 33 -105 33 -111 0 -7 -54 -3 -162 13 -90
13 -169 22 -177 21 -7 -2 69 -26 169 -54 l183 -52 178 52 c98 28 180 54 183
57 3 3 -75 -7 -174 -21 l-180 -27 6 21 c3 12 19 62 35 112 l29 91 195 132
c107 73 196 140 199 149 7 25 18 112 14 112 -2 0 -113 11 -248 25 -135 14
-249 24 -255 24 -5 -1 -106 -12 -224 -25z"/>
<path d="M2511 1036 c11 -9 388 -216 394 -216 9 0 377 200 389 211 5 5 -165 9
-389 9 -219 0 -396 -2 -394 -4z"/>
</g>
</svg>
